<svg width="163" height="24" viewBox="0 0 163 24" fill="none" xmlns="http://www.w3.org/2000/svg">
<path d="M0 22.848V0.448H4.224V19.008H14.464V22.848H0Z" fill="#2E3036"/>
<path d="M24.7038 23.296C23.1251 23.296 21.7277 22.9653 20.5117 22.304C19.3171 21.6213 18.3784 20.672 17.6958 19.456C17.0344 18.2187 16.7038 16.768 16.7038 15.104V14.72C16.7038 13.056 17.0344 11.616 17.6958 10.4C18.3571 9.16267 19.2851 8.21333 20.4797 7.552C21.6744 6.86933 23.0611 6.528 24.6397 6.528C26.1971 6.528 27.5518 6.88 28.7038 7.584C29.8558 8.26667 30.7518 9.22667 31.3918 10.464C32.0317 11.68 32.3517 13.0987 32.3517 14.72V16.096H20.7998C20.8424 17.184 21.2478 18.0693 22.0158 18.752C22.7838 19.4347 23.7224 19.776 24.8318 19.776C25.9624 19.776 26.7944 19.5307 27.3278 19.04C27.8611 18.5493 28.2664 18.0053 28.5438 17.408L31.8398 19.136C31.5411 19.6907 31.1038 20.2987 30.5278 20.96C29.9731 21.6 29.2264 22.1547 28.2878 22.624C27.3491 23.072 26.1544 23.296 24.7038 23.296ZM20.8318 13.088H28.2558C28.1704 12.1707 27.7971 11.4347 27.1357 10.88C26.4958 10.3253 25.6531 10.048 24.6077 10.048C23.5198 10.048 22.6558 10.3253 22.0158 10.88C21.3758 11.4347 20.9811 12.1707 20.8318 13.088Z" fill="#2E3036"/>
<path d="M41.4893 22.848C40.4439 22.848 39.5906 22.528 38.9292 21.888C38.2892 21.2267 37.9692 20.352 37.9692 19.264V10.304H34.0013V6.976H37.9692V2.048H42.0013V6.976H46.3533V10.304H42.0013V18.56C42.0013 19.2 42.2999 19.52 42.8973 19.52H45.9692V22.848H41.4893Z" fill="#2E3036"/>
<path d="M50.003 22.848V6.976H54.035V22.848H50.003ZM52.019 5.12C51.2937 5.12 50.675 4.88533 50.163 4.416C49.6723 3.94667 49.427 3.328 49.427 2.56C49.427 1.792 49.6723 1.17333 50.163 0.704C50.675 0.234667 51.2937 0 52.019 0C52.7657 0 53.3843 0.234667 53.875 0.704C54.3657 1.17333 54.611 1.792 54.611 2.56C54.611 3.328 54.3657 3.94667 53.875 4.416C53.3843 4.88533 52.7657 5.12 52.019 5.12Z" fill="#2E3036"/>
<path d="M61.127 22.848V10.304H57.095V6.976H61.127V4.032C61.127 2.944 61.447 2.08 62.087 1.44C62.7483 0.778667 63.6017 0.448 64.647 0.448H68.807V3.776H66.055C65.4577 3.776 65.159 4.096 65.159 4.736V6.976H69.319V10.304H65.159V22.848H61.127Z" fill="#2E3036"/>
<path d="M80.4375 22.848V0.448H84.6615V9.344H85.2375L92.5015 0.448H97.9095L88.5655 11.488L98.2295 22.848H92.6615L85.2375 13.76H84.6615V22.848H80.4375Z" fill="#2E3036"/>
<path d="M107.36 23.296C105.781 23.296 104.384 22.9653 103.168 22.304C101.973 21.6213 101.035 20.672 100.352 19.456C99.6907 18.2187 99.36 16.768 99.36 15.104V14.72C99.36 13.056 99.6907 11.616 100.352 10.4C101.013 9.16267 101.941 8.21333 103.136 7.552C104.331 6.86933 105.717 6.528 107.296 6.528C108.853 6.528 110.208 6.88 111.36 7.584C112.512 8.26667 113.408 9.22667 114.048 10.464C114.688 11.68 115.008 13.0987 115.008 14.72V16.096H103.456C103.499 17.184 103.904 18.0693 104.672 18.752C105.44 19.4347 106.379 19.776 107.488 19.776C108.619 19.776 109.451 19.5307 109.984 19.04C110.517 18.5493 110.923 18.0053 111.2 17.408L114.496 19.136C114.197 19.6907 113.76 20.2987 113.184 20.96C112.629 21.6 111.883 22.1547 110.944 22.624C110.005 23.072 108.811 23.296 107.36 23.296ZM103.488 13.088H110.912C110.827 12.1707 110.453 11.4347 109.792 10.88C109.152 10.3253 108.309 10.048 107.264 10.048C106.176 10.048 105.312 10.3253 104.672 10.88C104.032 11.4347 103.637 12.1707 103.488 13.088Z" fill="#2E3036"/>
<path d="M118.597 22.848V6.976H122.565V8.768H123.141C123.375 8.128 123.759 7.65867 124.293 7.36C124.847 7.06133 125.487 6.912 126.213 6.912H128.133V10.496H126.149C125.125 10.496 124.282 10.7733 123.621 11.328C122.959 11.8613 122.629 12.6933 122.629 13.824V22.848H118.597Z" fill="#2E3036"/>
<path d="M131.284 22.848V6.976H135.316V22.848H131.284ZM133.3 5.12C132.575 5.12 131.956 4.88533 131.444 4.416C130.954 3.94667 130.708 3.328 130.708 2.56C130.708 1.792 130.954 1.17333 131.444 0.704C131.956 0.234667 132.575 0 133.3 0C134.047 0 134.666 0.234667 135.156 0.704C135.647 1.17333 135.892 1.792 135.892 2.56C135.892 3.328 135.647 3.94667 135.156 4.416C134.666 4.88533 134.047 5.12 133.3 5.12Z" fill="#2E3036"/>
<path d="M139.784 22.848V6.976H143.752V8.704H144.328C144.606 8.17067 145.064 7.712 145.704 7.328C146.344 6.92267 147.187 6.72 148.232 6.72C149.363 6.72 150.27 6.944 150.952 7.392C151.635 7.81867 152.158 8.384 152.52 9.088H153.096C153.459 8.40533 153.971 7.84 154.632 7.392C155.294 6.944 156.232 6.72 157.448 6.72C158.43 6.72 159.315 6.93333 160.104 7.36C160.915 7.76533 161.555 8.39467 162.024 9.248C162.515 10.08 162.76 11.136 162.76 12.416V22.848H158.728V12.704C158.728 11.8293 158.504 11.1787 158.056 10.752C157.608 10.304 156.979 10.08 156.168 10.08C155.251 10.08 154.536 10.3787 154.024 10.976C153.534 11.552 153.288 12.384 153.288 13.472V22.848H149.256V12.704C149.256 11.8293 149.032 11.1787 148.584 10.752C148.136 10.304 147.507 10.08 146.696 10.08C145.779 10.08 145.064 10.3787 144.552 10.976C144.062 11.552 143.816 12.384 143.816 13.472V22.848H139.784Z" fill="#2E3036"/>
<path d="M50.163 4.416C50.675 4.88533 51.2937 5.12 52.019 5.12C52.7657 5.12 53.3843 4.88533 53.875 4.416C54.3657 3.94667 54.611 3.328 54.611 2.56C54.611 1.792 54.3657 1.17333 53.875 0.704C53.3843 0.234667 52.7657 0 52.019 0C51.2937 0 50.675 0.234667 50.163 0.704C49.6723 1.17333 49.427 1.792 49.427 2.56C49.427 3.328 49.6723 3.94667 50.163 4.416Z" fill="#2E3036"/>
</svg>
